<?xml version="1.0" encoding="UTF-8"?>
<svg id="Layer_1" xmlns="http://www.w3.org/2000/svg" version="1.1" viewBox="0 0 385.3 155.7">
  <!-- Generator: Adobe Illustrator 29.3.0, SVG Export Plug-In . SVG Version: 2.1.0 Build 146)  -->
  <defs>
    <style>
      .st0, .st1 {
        fill: #fff;
      }

      .st1 {
        fill-rule: evenodd;
      }
    </style>
  </defs>
  <path class="st1" d="M108.4,116.3c-5.3,5.3-12.6,8.4-20.6,8.4s-14.9-3.1-20.6-8.4c-.1.1-.2.2-.4.4-3.8-3.8-6.5-8.4-7.6-13.4-.8-2.3-.8-5-.8-7.6v-.8c0-7.3,3.1-14.5,8.4-19.9h0s0,0,0,0h-.1c0-.1.1,0,.1,0,5.3-5.3,12.6-8.4,20.6-8.4s8.4.8,12.2,2.7h.4c3.1,1.5,5.7,3.4,8.4,5.7l20.6-20.6c-10.7-10.7-25.2-17.2-41.2-17.2s-30.9,6.7-41.6,17.2h0c0,0-.2.2-.3.3,0,0,0,0,0,0h0c-1.4,1.4-2.8,2.8-3.9,4.3h0c-8,9.9-13,22.9-13,36.7s6.5,30.9,17.2,41.6c1.5,1.5,3.1,2.7,4.6,4.2h0c9.9,7.8,22.7,12.6,36.6,12.6s30.9-6.5,41.6-17.2l-20.6-20.6Z"/>
  <path class="st1" d="M98.1,20.4l4.2,10.7c-3.8-.8-7.3-1.1-11.1-1.1h-7.6c-6.9.8-13.7,2.3-19.9,5-6.5,2.7-12.2,6.1-17.6,10.7-.4.4-.8.4-.8.8-4.6,3.8-8.4,8.4-11.8,13.4l-3.8-9.6-.4-1.1-3.4-.4-10.7-.8-7.6-.4h-3.4L50.4,3.2l51.9-1.1,12.2-.4-16.4,18.7Z"/>
  <rect class="st0" x="107.7" y="79.2" width="7.6" height="35.5"/>
  <path class="st0" d="M135.4,114.7l-.5-2.5h-.2c-1.6,2-4.1,3-7,3-5,0-7.9-3.6-7.9-7.5,0-6.4,5.7-9.4,14.4-9.4v-.4c0-1.3-.7-3.2-4.5-3.2s-5.2.8-6.8,1.9l-1.4-4.9c1.7-.9,5.1-2.1,9.5-2.1,8.2,0,10.8,4.8,10.8,10.6v8.5c0,2.4,0,4.6.3,6h-6.9ZM134.5,103.1c-4,0-7.1.9-7.1,3.9s1.3,2.9,3,2.9,3.5-1.3,4-2.8c0-.4.2-.9.2-1.3v-2.7Z"/>
  <path class="st0" d="M147.8,108c1.4.8,4.3,1.9,6.6,1.9s3.3-.8,3.3-2.1-.8-1.8-3.6-2.8c-5.1-1.7-7-4.5-7-7.4,0-4.6,3.9-8,10-8s5.4.7,6.9,1.4l-1.4,5.3c-1.1-.6-3.2-1.4-5.3-1.4s-2.9.8-2.9,2,1,1.8,4,2.8c4.7,1.6,6.6,4,6.7,7.6,0,4.6-3.6,7.9-10.6,7.9s-6.1-.7-7.9-1.7l1.4-5.5Z"/>
  <path class="st0" d="M169.6,108c1.4.8,4.3,1.9,6.6,1.9s3.3-.8,3.3-2.1-.8-1.8-3.6-2.8c-5.1-1.7-7-4.5-7-7.4,0-4.6,3.9-8,10-8s5.4.7,6.9,1.4l-1.4,5.3c-1.1-.6-3.2-1.4-5.3-1.4s-2.9.8-2.9,2,1,1.8,4,2.8c4.7,1.6,6.6,4,6.7,7.6,0,4.6-3.6,7.9-10.6,7.9s-6.1-.7-7.9-1.7l1.4-5.5Z"/>
  <path class="st0" d="M191.1,114.7c0-1.6.2-4.6.2-7.3v-28.2h7.6v14h0c1.5-2.1,4-3.5,7.4-3.5,5.9,0,10.2,4.9,10.1,12.4,0,8.8-5.6,13.2-11.2,13.2s-5.6-1.1-7.4-4h0l-.3,3.4h-6.5ZM198.9,104.3c0,.5,0,1,.2,1.4.5,2.1,2.3,3.6,4.5,3.6,3.3,0,5.3-2.5,5.3-6.9s-1.7-6.8-5.3-6.8-4,1.6-4.5,3.8c0,.5-.2.9-.2,1.4v3.6Z"/>
  <path class="st0" d="M244.3,106.8c0,3.2,0,5.8.2,7.9h-6.6l-.4-3.5h-.2c-1,1.5-3.3,4-7.7,4s-8.6-3.1-8.6-10.7v-14.4h7.7v13.2c0,3.6,1.2,5.7,3.8,5.7s3.3-1.5,3.8-2.7c.2-.5.2-1.1.2-1.7v-14.6h7.7v16.6Z"/>
  <path class="st0" d="M274.2,79.2v28.2c0,2.8.1,5.7.2,7.3h-6.8l-.4-3.6h0c-1.6,2.8-4.5,4.2-7.7,4.2-5.8,0-10.5-5-10.5-12.6,0-8.3,5.1-13,11-13s5.4,1.1,6.5,2.8h0v-13.3h7.6ZM266.6,100.6c0-.4,0-1,0-1.4-.5-2.1-2.1-3.8-4.5-3.8-3.5,0-5.3,3.1-5.3,7s2.1,6.8,5.2,6.8,4-1.5,4.4-3.7c.2-.5.2-1.1.2-1.8v-3.2Z"/>
  <path class="st0" d="M304,79.2v28.2c0,2.8.1,5.7.2,7.3h-6.8l-.4-3.6h0c-1.6,2.8-4.5,4.2-7.7,4.2-5.8,0-10.5-5-10.5-12.6,0-8.3,5.1-13,11-13s5.4,1.1,6.5,2.8h0v-13.3h7.6ZM296.4,100.6c0-.4,0-1,0-1.4-.5-2.1-2.1-3.8-4.5-3.8-3.5,0-5.3,3.1-5.3,7s2.1,6.8,5.2,6.8,4-1.5,4.4-3.7c.2-.5.2-1.1.2-1.8v-3.2Z"/>
  <path class="st0" d="M315.8,90.2l3.7,12c.4,1.5.9,3.3,1.2,4.6h.2c.3-1.3.8-3.2,1.1-4.6l3-12h8.2l-5.7,16.1c-3.5,9.7-5.9,13.6-8.6,16.1-2.7,2.3-5.5,3.1-7.4,3.4l-1.6-6.5c1-.2,2.2-.6,3.3-1.3,1.1-.6,2.4-1.8,3.2-3.1.2-.3.4-.8.4-1.1s0-.7-.3-1.3l-9-22.4h8.5Z"/>
  <path class="st0" d="M333.3,110.7c0-2.7,1.9-4.7,4.5-4.7s4.5,1.9,4.5,4.7-1.8,4.6-4.5,4.6-4.5-2-4.5-4.6"/>
  <path class="st0" d="M360.8,114.7l-.5-2.5h-.2c-1.6,2-4.1,3-7,3-5,0-7.9-3.6-7.9-7.5,0-6.4,5.7-9.4,14.4-9.4v-.4c0-1.3-.7-3.2-4.5-3.2s-5.2.8-6.8,1.9l-1.4-4.9c1.7-.9,5.1-2.1,9.5-2.1,8.2,0,10.8,4.8,10.8,10.6v8.5c0,2.4,0,4.6.3,6h-6.9ZM359.9,103.1c-4,0-7.1.9-7.1,3.9s1.3,2.9,3,2.9,3.5-1.3,4-2.8c0-.4.2-.9.2-1.3v-2.7Z"/>
  <path class="st0" d="M381.2,83.4c0,2.1-1.6,3.8-4.1,3.8s-4-1.7-4-3.8c0-2.2,1.5-3.9,4-3.9s4,1.7,4.1,3.9M373.3,90.2h7.6v24.5h-7.6v-24.5Z"/>
</svg>